<?xml version="1.0" encoding="UTF-8"?>
<svg version="1.1" viewBox="0 0 380 228" width="250" height="250" xmlns="http://www.w3.org/2000/svg">
<path transform="translate(1,6)" d="m0 0h165l14 3 14 6 11 8 10 10 7 11 5 11 3 12v23l-4 14-8 16-11 12-9 8-14 8-11 4-10 2-59-59v-2l59-1 6-4 3-7-1-9-4-5-7-3-111-1-13-4-8-4-10-8-7-8-7-14-3-13z" fill="#2E47B9"/>
<path transform="translate(14,94)" d="m0 0h61l16 4 13 7 12 11 75 75 7 8 25 25v2h-55l-16-3-12-5-11-7-78-78-7-8-30-30z" fill="#2F48B9"/>
<path transform="translate(234,104)" d="m0 0 4 2 32 32 8 7 12 12 1 4-1 1-18 1-1 61-2 2h-33l-33-33-7-8-24-24v-2l15-5 15-8 11-8 7-7 9-14z" fill="#F037A5"/>
<path transform="translate(277,2)" d="m0 0h32l20 4 16 6 14 8 11 9 5 5-1 4-11 12-9 11-7 8-4-1-13-10-16-8-12-3h-23l-13 4-11 6-10 9-5 7-2-3-4-15-8-17-6-8 1-3 12-9 17-9 15-5z" fill="#2F48B9"/>
<path transform="translate(346,157)" d="m0 0 4 2 27 27-2 4-8 8-13 10-16 9-19 6-13 2-19 1-10-1v-34l9-2 15-4 12-5 14-8 12-9z" fill="#2F48B9"/>
</svg>
