<?xml version="1.0" encoding="UTF-8"?>
<svg version="1.1" viewBox="0 0 2048 228" width="1280" height="250" xmlns="http://www.w3.org/2000/svg">
<path transform="translate(719,32)" d="m0 0h49l14 23 13 21 16 26 13 25v-95h47v164h-49l-32-52-12-20-10-18-3-7 1 29v68h-47z" fill="#000302"/>
<path transform="translate(1,6)" d="m0 0h165l14 3 14 6 11 8 10 10 7 11 5 11 3 12v23l-4 14-8 16-11 12-9 8-14 8-11 4-10 2-59-59v-2l59-1 6-4 3-7-1-9-4-5-7-3-111-1-13-4-8-4-10-8-7-8-7-14-3-13z" fill="#000101"/>
<path transform="translate(436,32)" d="m0 0h85l15 4 13 7 7 6 7 10 4 9 3 14v13l-3 14-5 10-9 10-7 5h-2l31 62h-49l-25-50v-2h-19v52h-46zm46 37v39h26l8-3 6-6 2-6v-9l-3-7-7-6-5-2z" fill="#000302"/>
<path transform="translate(583,32)" d="m0 0h124v37l-78 1-1 25h72v37l-71 1v25l77 1v37h-123z"/>
<path transform="translate(1520,26)" d="m0 0 4 2 14 14 8 7 61 61 8 7 23 23 2 1-1-74v-35h27v170l-4-2-13-13-8-7-25-25-8-7-25-25-8-7-25-25-3-2v107h-27z" fill="#000202"/>
<path transform="translate(1243,30)" d="m0 0h23l14 3 16 7 10 7 10 9 7 8 8 13 5 12 3 13v25l-4 16-8 16-11 14-13 11-17 9-14 4-6 1h-22l-15-3-16-7-13-9-11-11-9-14-5-11-4-15v-27l4-15 8-16 7-10 6-7 14-11 14-7 13-4zm7 25-14 3-14 7-10 9-7 10-5 12-2 10v17l3 12 6 12 7 9 10 8 12 6 15 3h9l14-3 12-6 11-9 7-10 6-13 2-10v-16l-4-15-6-11-9-10-7-6-12-6-14-3z" fill="#000202"/>
<path transform="translate(1352,26)" d="m0 0 4 2 38 38 8 7 62 62 6 5 1-108h26v170l-8-6-29-29-8-7-25-25-8-7-26-26-8-7-6-6-1 107h-26z" fill="#000100"/>
<path transform="translate(881,32)" d="m0 0h141v37h-48v127h-45l-1-126-47-1z"/>
<path transform="translate(1688,32)" d="m0 0h110v25h-83l1 43 73 1v25h-74v45h86v25h-113z" fill="#000302"/>
<path transform="translate(14,94)" d="m0 0h61l16 4 13 7 12 11 75 75 7 8 25 25v2h-55l-16-3-12-5-11-7-78-78-7-8-30-30z" fill="#000202"/>
<path transform="translate(1105,30)" d="m0 0h25l14 3 15 6 7 4-5 13-5 12-5-2-17-8-11-2h-10l-13 3-10 5-10 8-9 13-5 13-2 13 1 16 5 16 6 9 7 8 14 8 10 3 8 1h9l16-3 18-9 10 21-1 4-16 8-13 4-6 1h-24l-15-3-13-5-10-6-10-8-8-9-8-13-5-13-3-15v-23l3-16 6-15 7-11 9-10 8-7 14-8 11-4z" fill="#000302"/>
<path transform="translate(1874,30)" d="m0 0h24l15 3 17 7 4 3-1 5-8 19-2 1-17-9-14-3h-10l-13 3-12 6-10 9-7 10-5 12-2 11v15l3 14 7 14 9 10 11 7 13 4 7 1h10l12-2 12-5 9-5 11 22-1 3-16 8-13 4-6 1h-25l-18-4-16-8-11-8-8-8-9-14-5-11-4-16v-29l4-17 8-17 7-9 5-6 10-8 15-8 14-4z" fill="#000202"/>
<path transform="translate(234,104)" d="m0 0 4 2 32 32 8 7 12 12 1 4-1 1-18 1-1 61-2 2h-33l-33-33-7-8-24-24v-2l15-5 15-8 11-8 7-7 9-14z" fill="#2DCA94"/>
<path transform="translate(1938,32)" d="m0 0h110v25h-42v139h-27v-139h-41z" fill="#000403"/>
<path transform="translate(277,2)" d="m0 0h32l20 4 16 6 14 8 11 9 5 5-1 4-11 12-9 11-7 8-4-1-13-10-16-8-12-3h-23l-13 4-11 6-10 9-5 7-2-3-4-15-8-17-6-8 1-3 12-9 17-9 15-5z" fill="#000302"/>
<path transform="translate(346,157)" d="m0 0 4 2 27 27-2 4-8 8-13 10-16 9-19 6-13 2-19 1-10-1v-34l9-2 15-4 12-5 14-8 12-9z" fill="#000201"/>
</svg>
