<?xml version="1.0" encoding="UTF-8"?>
<svg version="1.1" viewBox="0 0 2048 408" width="1280" height="250" xmlns="http://www.w3.org/2000/svg">
<path transform="translate(266,44)" d="m0 0 6 1 22 13 12 7 1 43 17 10 16 10 3 4v154l-5 5-22 13-52 30-27 16-24 14-6 1-14-7-22-13-26-15-19-11-24-14-25-15-4-5v-29l6 2 17 10 18 10v-91l6 2 24 14 1 1 1 49v43l15 9 26 15 17 10h8l18-10 22-13 48-28 11-7 2-2v-122l-8-6-26-15-24-14-26-15-17-10h-7l-11 6-26 15-24 14-26 15-13 8-2 4-1 87-14-7-15-9v-89l4-5 52-30 72-42 5-2 8 1 24 14 26 15 1-37z"/>
<path transform="translate(677,124)" d="m0 0h48l12 19 16 26 17 28 11 21v-94h45v162h-47l-12-19-14-23-13-21-14-25-3-6v94h-46z" fill="#020202"/>
<path transform="translate(398,124)" d="m0 0h84l15 4 11 6 10 9 6 9 5 13 1 6v17l-3 12-5 10-9 10-7 5h-2l12 23 15 29 4 9h-48l-24-48-2-3-18-1v52h-45zm45 36v39h25l8-3 6-5 3-8-1-11-4-6-8-5-4-1z"/>
<path transform="translate(543,124)" d="m0 0h122v37h-77v25h70l1 1v35h-71v27h76v37h-121z" fill="#010101"/>
<path transform="translate(1467,118)" d="m0 0 4 2 40 40 8 7 48 48 8 7 9 9v-107h27v167h-3l-26-26-8-7-19-19-8-7-25-25-8-7-20-20-1 106h-26z"/>
<path transform="translate(1194,122)" d="m0 0h23l16 4 16 8 11 8 9 9 9 13 6 12 4 15 1 8v12l-3 17-6 15-7 11-9 10-10 9-14 8-15 5-12 2h-16l-16-3-13-5-14-9-12-11-9-13-5-10-4-12-2-12v-16l3-15 5-13 7-12 11-13 13-10 14-7 13-4zm3 25-12 3-11 6-10 9-7 9-5 11-3 13v13l4 16 5 10 8 10 12 9 12 5 12 2h8l14-3 14-7 10-9 7-11 5-12 2-11v-11l-4-16-7-13-10-11-13-8-14-4z" fill="#010101"/>
<path transform="translate(1301,118)" d="m0 0 4 2 38 38 8 7 60 60 7 6v-107h26v168l-7-6-16-16-8-7-25-25-8-7-25-25-8-7-19-19-1 106h-26z"/>
<path transform="translate(836,124)" d="m0 0h140v37h-48v125h-44v-125h-47l-1-1z"/>
<path transform="translate(1633,124)" d="m0 0h108v24l-1 1h-81l1 42 72 1v25h-73l1 43 84 1v25h-111z"/>
<path transform="translate(1815,122)" d="m0 0h25l14 3 15 6 6 4-3 10-6 14-4-1-17-8-8-2h-17l-13 4-10 6-10 10-7 12-4 13-1 13 2 16 5 13 7 10 9 8 12 6 15 3h9l16-3 14-7 3-2 11 22v2l-15 8-12 4-12 2h-18l-20-4-17-8-9-7-11-11-8-13-6-15-3-17v-15l3-18 6-16 9-14 12-12 11-7 11-5z"/>
<path transform="translate(1058,122)" d="m0 0h24l14 3 15 6 6 4-1 5-8 19-4-1-17-8-8-2h-17l-13 4-11 7-8 8-7 11-4 11-1 5v22l3 12 6 12 10 11 10 6 13 4 7 1h10l15-3 14-7 3-2 9 17 2 7-15 8-12 4-11 2h-19l-20-4-17-8-10-8-10-10-8-13-5-12-3-13v-29l4-17 5-12 9-13 11-11 11-7 11-5 11-3z"/>
<path transform="translate(1878,124)" d="m0 0h109v25h-41v137h-27v-137h-40z" fill="#050505"/>
<path transform="translate(217,106)" d="m0 0 35 20 1 1v146l-22 13-12 7h-2l-1-32v-152z" fill="#010101"/>
<path transform="translate(265,135)" d="m0 0 4 1 26 15 7 5v87l-5 5-23 13-7 4h-2z"/>
<path transform="translate(197,107)" d="m0 0h3v114l-6-2-28-16-9-6v-66l9-6 26-15z" fill="#010101"/>
<path transform="translate(157,212)" d="m0 0 5 1 23 13 14 8 1 6v51l-2 1-25-14-15-9-1-1z" fill="#020202"/>
<path transform="translate(144,138)" d="m0 0h1v52l-6-2-17-10-8-5v-16l5-5z" fill="#010101"/>
<path transform="translate(135,246)" d="m0 0 5 1 3 3-1 6-2 2h-6l-3-3v-6z" fill="#FEFEFE"/>
</svg>
